<svg width="600" height="400" viewBox="0 0 600 400" fill="none" xmlns="http://www.w3.org/2000/svg">
  <style>
    .code-window {
      filter: drop-shadow(0px 10px 20px rgba(0, 0, 0, 0.3));
    }
    .glow {
      filter: drop-shadow(0px 0px 10px rgba(96, 165, 250, 0.5));
    }
    @keyframes float {
      0% { transform: translateY(0px); }
      50% { transform: translateY(-10px); }
      100% { transform: translateY(0px); }
    }
    .float {
      animation: float 6s ease-in-out infinite;
    }
    .float-delayed {
      animation: float 6s ease-in-out infinite;
      animation-delay: 1s;
    }
    .float-more-delayed {
      animation: float 6s ease-in-out infinite;
      animation-delay: 2s;
    }
  </style>
  
  <!-- Background elements -->
  <circle cx="300" cy="200" r="150" fill="#172554" opacity="0.4" class="float" />
  <circle cx="120" cy="300" r="50" fill="#1e40af" opacity="0.3" class="float-delayed" />
  <circle cx="450" cy="100" r="40" fill="#1e40af" opacity="0.3" class="float-more-delayed" />
  
  <!-- API Window -->
  <g class="code-window float">
    <rect x="100" y="80" width="400" height="240" rx="8" fill="#1e293b" stroke="#334155" stroke-width="2"/>
    <rect x="100" y="80" width="400" height="40" rx="8" fill="#0f172a" stroke="#334155" stroke-width="2"/>
    <circle cx="125" cy="100" r="6" fill="#EF4444"/>
    <circle cx="145" cy="100" r="6" fill="#F59E0B"/>
    <circle cx="165" cy="100" r="6" fill="#10B981"/>
    
    <!-- Code content -->
    <rect x="120" y="140" width="120" height="16" rx="3" fill="#60A5FA" opacity="0.2"/>
    <rect x="250" y="140" width="70" height="16" rx="3" fill="#60A5FA" opacity="0.1"/>
    <rect x="120" y="170" width="100" height="16" rx="3" fill="#34D399" opacity="0.2"/>
    <rect x="230" y="170" width="140" height="16" rx="3" fill="#34D399" opacity="0.1"/>
    <rect x="120" y="200" width="150" height="16" rx="3" fill="#A78BFA" opacity="0.2"/>
    <rect x="280" y="200" width="60" height="16" rx="3" fill="#A78BFA" opacity="0.1"/>
    <rect x="120" y="230" width="90" height="16" rx="3" fill="#F87171" opacity="0.2"/>
    <rect x="220" y="230" width="120" height="16" rx="3" fill="#F87171" opacity="0.1"/>
    
    <!-- Endpoint labels -->
    <rect x="350" y="140" width="40" height="20" rx="4" fill="#3B82F6" class="glow"/>
    <text x="356" y="154" font-family="Menlo, monospace" font-size="10" fill="white">GET</text>
    
    <rect x="380" y="170" width="40" height="20" rx="4" fill="#10B981" class="glow"/>
    <text x="383" y="184" font-family="Menlo, monospace" font-size="10" fill="white">POST</text>
    
    <rect x="350" y="200" width="40" height="20" rx="4" fill="#8B5CF6" class="glow"/>
    <text x="355" y="214" font-family="Menlo, monospace" font-size="10" fill="white">PUT</text>
    
    <rect x="350" y="230" width="40" height="20" rx="4" fill="#EF4444" class="glow"/>
    <text x="353" y="244" font-family="Menlo, monospace" font-size="10" fill="white">DEL</text>
  </g>
  
  <!-- Connection lines -->
  <path d="M350 280 C 350 320, 420 320, 420 350" stroke="#60A5FA" stroke-width="2" stroke-dasharray="4 2" class="float-delayed"/>
  <path d="M250 280 C 250 300, 200 320, 200 350" stroke="#34D399" stroke-width="2" stroke-dasharray="4 2" class="float-more-delayed"/>
  
  <!-- Data endpoints -->
  <g class="float-delayed">
    <rect x="380" y="350" width="80" height="30" rx="6" fill="#1e293b" stroke="#60A5FA" stroke-width="2"/>
    <text x="393" y="370" font-family="Menlo, monospace" font-size="12" fill="#60A5FA">JSON</text>
  </g>
  
  <g class="float-more-delayed">
    <rect x="160" y="350" width="80" height="30" rx="6" fill="#1e293b" stroke="#34D399" stroke-width="2"/>
    <text x="174" y="370" font-family="Menlo, monospace" font-size="12" fill="#34D399">DATA</text>
  </g>
</svg>
